# xmcd
#
# Track frame offsets:
#	150
#	21115
#	39936
#	56423
#	84850
#	100446
#
# Disc length: 1580 seconds
#
# Revision: 1
# Processed by: cddbd v1.4PL0 Copyright (c) Steve Scherf et al.
# Submitted via: EasyCDDAExtractor 5.0.7
#
DISCID=3b062a06
DTITLE=Jonny Kaplan and The Lazy Stars - Ride Free
DYEAR=2003
DGENRE=Country
TTITLE0=Ride Free
TTITLE1=Stick Around
TTITLE2=Hidden Treasure
TTITLE3=Out Along The Highway
TTITLE4=The Best Is Yet To Come
TTITLE5=Greasy Spoon
EXTD=
EXTT0=
EXTT1=
EXTT2=
EXTT3=
EXTT4=
EXTT5=
PLAYORDER=
